<mxfile host="app.diagrams.net" modified="2023-08-07T23:41:28.338Z" agent="Mozilla/5.0 (Windows NT 10.0; Win64; x64) AppleWebKit/537.36 (KHTML, like Gecko) Chrome/115.0.0.0 Safari/537.36" etag="WE25blb2_pMdqoPK4-YG" version="21.6.6" type="device">
  <diagram name="Page-1" id="iSLNAPMeHW9vmjwyTE4i">
    <mxGraphModel dx="1434" dy="750" grid="1" gridSize="10" guides="1" tooltips="1" connect="1" arrows="1" fold="1" page="1" pageScale="1" pageWidth="827" pageHeight="1169" math="0" shadow="0">
      <root>
        <mxCell id="0" />
        <mxCell id="1" parent="0" />
        <mxCell id="BfDBL7ki2tLZg0gAbBJe-18" style="rounded=0;orthogonalLoop=1;jettySize=auto;html=1;entryX=0.5;entryY=0;entryDx=0;entryDy=0;exitX=0.5;exitY=1;exitDx=0;exitDy=0;" edge="1" parent="1" target="BfDBL7ki2tLZg0gAbBJe-4">
          <mxGeometry relative="1" as="geometry">
            <mxPoint x="201" y="251" as="sourcePoint" />
          </mxGeometry>
        </mxCell>
        <mxCell id="BfDBL7ki2tLZg0gAbBJe-1" value="설문주제" style="rounded=1;arcSize=10;whiteSpace=wrap;html=1;align=center;" vertex="1" parent="1">
          <mxGeometry x="151" y="210" width="100" height="40" as="geometry" />
        </mxCell>
        <mxCell id="BfDBL7ki2tLZg0gAbBJe-2" value="설문내용들" style="rounded=1;arcSize=10;whiteSpace=wrap;html=1;align=center;" vertex="1" parent="1">
          <mxGeometry x="494" y="210" width="100" height="40" as="geometry" />
        </mxCell>
        <mxCell id="BfDBL7ki2tLZg0gAbBJe-3" value="설문응답" style="rounded=1;arcSize=10;whiteSpace=wrap;html=1;align=center;" vertex="1" parent="1">
          <mxGeometry x="494" y="40" width="100" height="40" as="geometry" />
        </mxCell>
        <mxCell id="BfDBL7ki2tLZg0gAbBJe-4" value="주제Idx" style="ellipse;whiteSpace=wrap;html=1;align=center;fontStyle=4;" vertex="1" parent="1">
          <mxGeometry x="41" y="275" width="100" height="40" as="geometry" />
        </mxCell>
        <mxCell id="BfDBL7ki2tLZg0gAbBJe-5" value="내용Idx" style="ellipse;whiteSpace=wrap;html=1;align=center;fontStyle=4;" vertex="1" parent="1">
          <mxGeometry x="384" y="275" width="100" height="40" as="geometry" />
        </mxCell>
        <mxCell id="BfDBL7ki2tLZg0gAbBJe-6" value="응답idx" style="ellipse;whiteSpace=wrap;html=1;align=center;fontStyle=4;" vertex="1" parent="1">
          <mxGeometry x="437" y="100" width="100" height="40" as="geometry" />
        </mxCell>
        <mxCell id="BfDBL7ki2tLZg0gAbBJe-7" value="설문응답자" style="rounded=1;arcSize=10;whiteSpace=wrap;html=1;align=center;" vertex="1" parent="1">
          <mxGeometry x="160" y="40" width="100" height="40" as="geometry" />
        </mxCell>
        <mxCell id="BfDBL7ki2tLZg0gAbBJe-8" value="응답자idx" style="ellipse;whiteSpace=wrap;html=1;align=center;fontStyle=4;" vertex="1" parent="1">
          <mxGeometry x="30" y="90" width="100" height="40" as="geometry" />
        </mxCell>
        <mxCell id="BfDBL7ki2tLZg0gAbBJe-9" value="질문내용" style="ellipse;whiteSpace=wrap;html=1;align=center;" vertex="1" parent="1">
          <mxGeometry x="604" y="275" width="100" height="40" as="geometry" />
        </mxCell>
        <mxCell id="BfDBL7ki2tLZg0gAbBJe-10" value="질문번호" style="ellipse;whiteSpace=wrap;html=1;align=center;" vertex="1" parent="1">
          <mxGeometry x="494" y="275" width="100" height="40" as="geometry" />
        </mxCell>
        <mxCell id="BfDBL7ki2tLZg0gAbBJe-11" value="주제제목" style="ellipse;whiteSpace=wrap;html=1;align=center;" vertex="1" parent="1">
          <mxGeometry x="151" y="275" width="100" height="40" as="geometry" />
        </mxCell>
        <mxCell id="BfDBL7ki2tLZg0gAbBJe-12" value="주제요약" style="ellipse;whiteSpace=wrap;html=1;align=center;" vertex="1" parent="1">
          <mxGeometry x="261" y="275" width="100" height="40" as="geometry" />
        </mxCell>
        <mxCell id="BfDBL7ki2tLZg0gAbBJe-13" value="이름" style="ellipse;whiteSpace=wrap;html=1;align=center;" vertex="1" parent="1">
          <mxGeometry x="110" y="120" width="100" height="40" as="geometry" />
        </mxCell>
        <mxCell id="BfDBL7ki2tLZg0gAbBJe-14" value="이메일" style="ellipse;whiteSpace=wrap;html=1;align=center;" vertex="1" parent="1">
          <mxGeometry x="220" y="120" width="100" height="40" as="geometry" />
        </mxCell>
        <mxCell id="BfDBL7ki2tLZg0gAbBJe-15" value="전화번호" style="ellipse;whiteSpace=wrap;html=1;align=center;" vertex="1" parent="1">
          <mxGeometry x="300" y="90" width="100" height="40" as="geometry" />
        </mxCell>
        <mxCell id="BfDBL7ki2tLZg0gAbBJe-17" value="답변내용" style="ellipse;whiteSpace=wrap;html=1;align=center;" vertex="1" parent="1">
          <mxGeometry x="547" y="100" width="100" height="40" as="geometry" />
        </mxCell>
        <mxCell id="BfDBL7ki2tLZg0gAbBJe-19" style="rounded=0;orthogonalLoop=1;jettySize=auto;html=1;entryX=0.5;entryY=0;entryDx=0;entryDy=0;exitX=0.5;exitY=1;exitDx=0;exitDy=0;" edge="1" parent="1" target="BfDBL7ki2tLZg0gAbBJe-11">
          <mxGeometry relative="1" as="geometry">
            <mxPoint x="201" y="251" as="sourcePoint" />
            <mxPoint x="101" y="291" as="targetPoint" />
          </mxGeometry>
        </mxCell>
        <mxCell id="BfDBL7ki2tLZg0gAbBJe-20" style="rounded=0;orthogonalLoop=1;jettySize=auto;html=1;exitX=0.5;exitY=1;exitDx=0;exitDy=0;entryX=0.5;entryY=0;entryDx=0;entryDy=0;" edge="1" parent="1" target="BfDBL7ki2tLZg0gAbBJe-12">
          <mxGeometry relative="1" as="geometry">
            <mxPoint x="201" y="251" as="sourcePoint" />
            <mxPoint x="211" y="291" as="targetPoint" />
          </mxGeometry>
        </mxCell>
        <mxCell id="BfDBL7ki2tLZg0gAbBJe-21" style="rounded=0;orthogonalLoop=1;jettySize=auto;html=1;exitX=0.5;exitY=1;exitDx=0;exitDy=0;entryX=0.5;entryY=0;entryDx=0;entryDy=0;" edge="1" parent="1" source="BfDBL7ki2tLZg0gAbBJe-2" target="BfDBL7ki2tLZg0gAbBJe-5">
          <mxGeometry relative="1" as="geometry">
            <mxPoint x="314" y="355" as="sourcePoint" />
            <mxPoint x="424" y="385" as="targetPoint" />
          </mxGeometry>
        </mxCell>
        <mxCell id="BfDBL7ki2tLZg0gAbBJe-22" style="rounded=0;orthogonalLoop=1;jettySize=auto;html=1;exitX=0.5;exitY=1;exitDx=0;exitDy=0;entryX=0.5;entryY=0;entryDx=0;entryDy=0;" edge="1" parent="1" source="BfDBL7ki2tLZg0gAbBJe-2" target="BfDBL7ki2tLZg0gAbBJe-10">
          <mxGeometry relative="1" as="geometry">
            <mxPoint x="554" y="260" as="sourcePoint" />
            <mxPoint x="444" y="285" as="targetPoint" />
          </mxGeometry>
        </mxCell>
        <mxCell id="BfDBL7ki2tLZg0gAbBJe-23" style="rounded=0;orthogonalLoop=1;jettySize=auto;html=1;entryX=0.5;entryY=0;entryDx=0;entryDy=0;exitX=0.5;exitY=1;exitDx=0;exitDy=0;" edge="1" parent="1" source="BfDBL7ki2tLZg0gAbBJe-2" target="BfDBL7ki2tLZg0gAbBJe-9">
          <mxGeometry relative="1" as="geometry">
            <mxPoint x="664" y="245" as="sourcePoint" />
            <mxPoint x="554" y="285" as="targetPoint" />
          </mxGeometry>
        </mxCell>
        <mxCell id="BfDBL7ki2tLZg0gAbBJe-24" style="rounded=0;orthogonalLoop=1;jettySize=auto;html=1;exitX=0.5;exitY=1;exitDx=0;exitDy=0;entryX=1;entryY=0.5;entryDx=0;entryDy=0;" edge="1" parent="1" source="BfDBL7ki2tLZg0gAbBJe-7" target="BfDBL7ki2tLZg0gAbBJe-8">
          <mxGeometry relative="1" as="geometry">
            <mxPoint x="210" y="180" as="sourcePoint" />
            <mxPoint x="100" y="205" as="targetPoint" />
          </mxGeometry>
        </mxCell>
        <mxCell id="BfDBL7ki2tLZg0gAbBJe-25" style="rounded=0;orthogonalLoop=1;jettySize=auto;html=1;exitX=0.5;exitY=1;exitDx=0;exitDy=0;entryX=0.5;entryY=0;entryDx=0;entryDy=0;" edge="1" parent="1" source="BfDBL7ki2tLZg0gAbBJe-7" target="BfDBL7ki2tLZg0gAbBJe-13">
          <mxGeometry relative="1" as="geometry">
            <mxPoint x="220" y="80" as="sourcePoint" />
            <mxPoint x="160" y="100" as="targetPoint" />
          </mxGeometry>
        </mxCell>
        <mxCell id="BfDBL7ki2tLZg0gAbBJe-26" style="rounded=0;orthogonalLoop=1;jettySize=auto;html=1;exitX=0.5;exitY=1;exitDx=0;exitDy=0;entryX=0.5;entryY=0;entryDx=0;entryDy=0;" edge="1" parent="1" source="BfDBL7ki2tLZg0gAbBJe-7" target="BfDBL7ki2tLZg0gAbBJe-14">
          <mxGeometry relative="1" as="geometry">
            <mxPoint x="220" y="80" as="sourcePoint" />
            <mxPoint x="170" y="130" as="targetPoint" />
          </mxGeometry>
        </mxCell>
        <mxCell id="BfDBL7ki2tLZg0gAbBJe-27" style="rounded=0;orthogonalLoop=1;jettySize=auto;html=1;exitX=0.5;exitY=1;exitDx=0;exitDy=0;entryX=0;entryY=0.5;entryDx=0;entryDy=0;" edge="1" parent="1" source="BfDBL7ki2tLZg0gAbBJe-7" target="BfDBL7ki2tLZg0gAbBJe-15">
          <mxGeometry relative="1" as="geometry">
            <mxPoint x="220" y="80" as="sourcePoint" />
            <mxPoint x="280" y="130" as="targetPoint" />
          </mxGeometry>
        </mxCell>
        <mxCell id="BfDBL7ki2tLZg0gAbBJe-28" style="rounded=0;orthogonalLoop=1;jettySize=auto;html=1;exitX=0.5;exitY=1;exitDx=0;exitDy=0;entryX=0.5;entryY=0;entryDx=0;entryDy=0;" edge="1" parent="1" source="BfDBL7ki2tLZg0gAbBJe-3" target="BfDBL7ki2tLZg0gAbBJe-6">
          <mxGeometry relative="1" as="geometry">
            <mxPoint x="467" y="335" as="sourcePoint" />
            <mxPoint x="357" y="360" as="targetPoint" />
          </mxGeometry>
        </mxCell>
        <mxCell id="BfDBL7ki2tLZg0gAbBJe-29" style="rounded=0;orthogonalLoop=1;jettySize=auto;html=1;exitX=0.5;exitY=1;exitDx=0;exitDy=0;entryX=0.5;entryY=0;entryDx=0;entryDy=0;" edge="1" parent="1" source="BfDBL7ki2tLZg0gAbBJe-3" target="BfDBL7ki2tLZg0gAbBJe-17">
          <mxGeometry relative="1" as="geometry">
            <mxPoint x="554" y="90" as="sourcePoint" />
            <mxPoint x="497" y="110" as="targetPoint" />
          </mxGeometry>
        </mxCell>
        <mxCell id="BfDBL7ki2tLZg0gAbBJe-30" value="" style="edgeStyle=entityRelationEdgeStyle;fontSize=12;html=1;endArrow=ERoneToMany;rounded=0;exitX=1;exitY=0.5;exitDx=0;exitDy=0;entryX=0;entryY=0.5;entryDx=0;entryDy=0;" edge="1" parent="1" source="BfDBL7ki2tLZg0gAbBJe-1" target="BfDBL7ki2tLZg0gAbBJe-2">
          <mxGeometry width="100" height="100" relative="1" as="geometry">
            <mxPoint x="270" y="305" as="sourcePoint" />
            <mxPoint x="370" y="205" as="targetPoint" />
          </mxGeometry>
        </mxCell>
        <mxCell id="BfDBL7ki2tLZg0gAbBJe-32" value="" style="edgeStyle=entityRelationEdgeStyle;fontSize=12;html=1;endArrow=ERoneToMany;rounded=0;exitX=1;exitY=0.5;exitDx=0;exitDy=0;entryX=0;entryY=0.5;entryDx=0;entryDy=0;" edge="1" parent="1" source="BfDBL7ki2tLZg0gAbBJe-7" target="BfDBL7ki2tLZg0gAbBJe-3">
          <mxGeometry width="100" height="100" relative="1" as="geometry">
            <mxPoint x="270" y="400" as="sourcePoint" />
            <mxPoint x="370" y="300" as="targetPoint" />
          </mxGeometry>
        </mxCell>
        <mxCell id="BfDBL7ki2tLZg0gAbBJe-34" value="" style="edgeStyle=elbowEdgeStyle;fontSize=12;html=1;endArrow=ERoneToMany;rounded=0;entryX=0.5;entryY=1;entryDx=0;entryDy=0;exitX=0.5;exitY=0;exitDx=0;exitDy=0;elbow=vertical;" edge="1" parent="1" source="BfDBL7ki2tLZg0gAbBJe-2" target="BfDBL7ki2tLZg0gAbBJe-3">
          <mxGeometry width="100" height="100" relative="1" as="geometry">
            <mxPoint x="501" y="260" as="sourcePoint" />
            <mxPoint x="601" y="160" as="targetPoint" />
          </mxGeometry>
        </mxCell>
      </root>
    </mxGraphModel>
  </diagram>
</mxfile>
